# xmcd CD database file
#
# Track frame offsets:
#	150
#	12639
#	24344
#	38851
#	56270
#	67817
#	80015
#	93594
#	105741
#	120515
#	133721
#	146676
#	156786
#	170125
#	183355
#	197807
#	210431
#	222859
#
# Disc length: 3195 seconds
#
# Revision: 2
# Processed by: cddbd v1.5.1PL2 Copyright (c) Steve Scherf et al.
# Submitted via: CDex 1.51
#
DISCID=fc0c7912
DTITLE=Γιάννης Πουλόπουλος - Τα Τραγούδια μου CD 4
DYEAR=1998
DGENRE=Ελαφρά Λαϊκά
TTITLE0=Γειτονάκι μου
TTITLE1=Καμαρούλα μιά σταλιά
TTITLE2=Πάμε για ύπνο Κατερίνα
TTITLE3=Οποια και να'σαι
TTITLE4=Η Μυρσίνη βάζει τ' άσπρα
TTITLE5=Φεγγαράκι χάσικο
TTITLE6=Η Ελένη του Μάη
TTITLE7=Ποιός μου πήρε τη χαρά
TTITLE8=Νύχτα μικρή αρχόντισα
TTITLE9=Μην κλείσεις το παράθυρο
TTITLE10=Ενα μαχαίρι
TTITLE11=Τ' άσπρα πουλιά
TTITLE12=Καράβι αραγμένο
TTITLE13=Ο ναύτης
TTITLE14=Ονειρό μου
TTITLE15=Αυτοί που φεύγουν κι' αυτοί που μένουν
TTITLE16=Για μένα βράδιασε
TTITLE17=Επεφτε βαθειά σιωπή
EXTD=YEAR: 1998
EXTT0=
EXTT1=
EXTT2=
EXTT3=
EXTT4=
EXTT5=
EXTT6=
EXTT7=
EXTT8=
EXTT9=
EXTT10=
EXTT11=
EXTT12=
EXTT13=
EXTT14=
EXTT15=
EXTT16=
EXTT17=
PLAYORDER=
